<?xml version="1.0" standalone="no"?>
<!DOCTYPE svg PUBLIC "-//W3C//DTD SVG 20010904//EN"
 "http://www.w3.org/TR/2001/REC-SVG-20010904/DTD/svg10.dtd">
<svg version="1.0" xmlns="http://www.w3.org/2000/svg"
 width="503.000000pt" height="418.000000pt" viewBox="0 0 503.000000 418.000000"
 preserveAspectRatio="xMidYMid meet">
<metadata>
Created by potrace 1.16, written by Peter Selinger 2001-2019
</metadata>
<g transform="translate(0.000000,418.000000) scale(0.100000,-0.100000)"
fill="#FF0000" stroke="none">
<path d="M1230 3551 c-69 -135 -132 -359 -150 -531 -46 -442 149 -822 510
-992 58 -27 116 -55 130 -62 32 -15 37 -72 16 -177 -25 -118 -83 -224 -166
-302 -118 -112 -222 -152 -390 -150 -62 0 -129 7 -164 16 -33 9 -63 14 -67 11
-12 -7 27 -125 74 -224 183 -385 642 -619 1125 -572 187 17 394 89 505 174
239 183 453 495 642 938 l62 145 261 3 c191 2 263 6 270 15 6 6 52 118 102
247 51 129 94 238 97 242 2 5 -253 8 -567 8 l-570 0 -15 -32 c-16 -35 -137
-344 -412 -1048 -14 -36 -32 -80 -40 -98 l-15 -32 -247 2 c-228 3 -246 4 -249
21 -2 10 19 75 47 145 78 198 274 697 312 795 l34 89 100 47 c55 26 129 61
165 78 l65 31 -472 1 c-434 1 -473 2 -473 18 0 25 170 457 183 465 7 4 426 8
933 8 1037 0 934 -9 968 80 49 128 23 278 -65 375 -100 109 -259 165 -468 165
-171 0 -319 -20 -675 -90 -465 -92 -544 -103 -751 -104 -202 -1 -259 10 -380
68 -87 42 -161 117 -201 204 -16 34 -32 62 -36 62 -4 0 -17 -18 -28 -39z"/>
</g>
</svg>
